#!OML:ASF \\Waltz\H\Terrain\Patient Classification 1\Animal2\Wednesday\Animal2.ASF
:FULLY-SPECIFIED
:DEGREES
3089
root 11.1341 17.7752 17.1195 7.47837 10.0354 1.82319
lowerback 2.49239 -2.13725 3.6822
upperback -0.659362 -2.69705 1.4168
thorax -2.17661 -1.38275 -0.486095
lowerneck 4.61869 4.6987 16.1324
upperneck 4.03978 7.59231 -19.4603
head 1.76276 3.96995 -8.65949
rclavicle 4.67144e-015 -7.15625e-015
rhumerus -39.7648 -8.9264 -69.7221
rradius 32.1238
rwrist 14.4727
rhand -9.2751 19.5527
rfingers 7.12502
rthumb 16.6816 -9.75055
lclavicle 4.67144e-015 -7.15625e-015
lhumerus -45.1105 0.22735 80.5511
lradius 30.6659
lwrist 14.4831
lhand -41.6527 -3.11209
lfingers 7.12502
lthumb -14.5606 26.3569
rfemur -16.535 -15.824 24.3269
rtibia 31.593
rfoot -23.963 3.70281
rtoes 28.023
lfemur -15.2215 -5.14496 -16.4459
ltibia 29.5653
lfoot -21.2697 0.663388
ltoes -29.0097
3090
root 11.1231 17.7747 17.1264 7.52859 9.93998 1.7495
lowerback 2.61277 -2.12053 3.75731
upperback -0.764248 -2.66362 1.3774
thorax -2.35648 -1.3708 -0.562165
lowerneck 4.62389 4.70719 16.0548
upperneck 3.97187 7.58442 -19.2831
head 1.73201 3.96612 -8.58628
rclavicle 1.54058e-014 -2.14687e-014
rhumerus -40.2055 -9.34958 -69.4963
rradius 31.1663
rwrist 15.0511
rhand -8.67299 19.154
rfingers 7.12502
rthumb 17.2612 -10.0994
lclavicle 1.54058e-014 -2.14687e-014
lhumerus -45.4035 1.1303 79.7348
lradius 28.8582
lwrist 13.9584
lhand -41.7085 -3.29154
lfingers 7.12502
lthumb -14.6143 26.1735
rfemur -16.5761 -15.3531 24.4799
rtibia 31.6121
rfoot -23.9365 3.17024
rtoes 27.4833
lfemur -15.2235 -5.25557 -16.3228
ltibia 29.5264
lfoot -21.2922 0.843417
ltoes -28.7034
3091
root 11.1124 17.7723 17.1367 7.4881 9.76983 1.65112
lowerback 2.72533 -2.10197 3.81857
upperback -0.820206 -2.62979 1.34771
thorax -2.4804 -1.35728 -0.622391
lowerneck 4.67011 4.68155 16.1852
upperneck 3.9704 7.56317 -19.3469
head 1.72712 3.95942 -8.63328
rclavicle 1.39149e-014 1.03368e-014
rhumerus -40.6506 -9.70071 -69.288
rradius 30.4053
rwrist 15.5518
rhand -7.84416 18.6857
rfingers 7.12502
rthumb 18.0588 -10.496
lclavicle 1.39149e-014 1.03368e-014
lhumerus -45.8226 1.93852 78.8917
lradius 27.2966
lwrist 13.6734
lhand -41.6892 -3.8259
lfingers 7.12502
lthumb -14.5957 25.6405
rfemur -16.4893 -14.9003 24.6205
rtibia 31.5798
rfoot -23.9431 2.84285
rtoes 27.6706
lfemur -15.1503 -5.25653 -16.1902
ltibia 29.5333
lfoot -21.4712 1.02097
ltoes -28.8533
3092
root 11.1079 17.7688 17.1515 7.53195 9.63593 1.69392
lowerback 2.54816 -2.11661 3.75281
upperback -0.730549 -2.66534 1.27591
thorax -2.29013 -1.37123 -0.667129
lowerneck 4.50861 4.7129 16.5622
upperneck 4.0017 7.61889 -19.6589
head 1.80019 3.98348 -8.79795
rclavicle 8.74653e-015 -1.03368e-014
rhumerus -40.7913 -10.0487 -69.1829
rradius 29.5847
rwrist 16.1324
rhand -7.24709 18.7022
rfingers 7.12502
rthumb 18.6332 -10.4254
lclavicle 8.74653e-015 -1.03368e-014
lhumerus -46.1348 2.74541 78.0426
lradius 25.9979
lwrist 13.5738
lhand -41.9929 -3.85856
lfingers 7.12502
lthumb -14.8883 25.5864
rfemur -16.4584 -15.0048 24.5816
rtibia 31.5073
rfoot -24.0208 2.99985
rtoes 27.6186
lfemur -15.165 -5.12155 -16.2328
ltibia 29.6032
lfoot -21.6593 1.21876
ltoes -29.871
3093
root 11.1028 17.7635 17.1602 7.54796 9.53777 1.59888
lowerback 2.42735 -2.12743 3.80069
upperback -0.551345 -2.68999 1.26852
thorax -2.04135 -1.37881 -0.709763
lowerneck 4.34275 4.85309 16.667
upperneck 3.63688 7.7478 -19.6506
head 1.75445 4.04459 -8.8027
rclavicle -1.94809e-014 -4.77083e-015
rhumerus -40.7363 -10.8671 -68.8529
rradius 28.6147
rwrist 16.9502
rhand -7.10859 19.0989
rfingers 7.12502
rthumb 18.7664 -10.0158
lclavicle -1.94809e-014 -4.77083e-015
lhumerus -46.2835 3.51836 77.3045
lradius 24.8957
lwrist 13.4066
lhand -42.3546 -3.30938
lfingers 7.12502
lthumb -15.2367 26.1095
rfemur -16.4495 -15.0129 24.7118
rtibia 31.4257
rfoot -24.0118 3.10173
rtoes 27.898
lfemur -15.2011 -4.90597 -16.1121
ltibia 29.696
lfoot -21.6896 1.24386
ltoes -30.1122
3094
root 11.0948 17.7552 17.1651 7.47326 9.41307 1.38181
lowerback 2.48396 -2.14061 3.9311
upperback -0.442409 -2.7026 1.32513
thorax -1.965 -1.38379 -0.724207
lowerneck 4.83852 4.96233 16.5419
upperneck 2.70774 7.83714 -19.4518
head 1.41187 4.12133 -8.73033
rclavicle 6.55989e-015 -3.18055e-014
rhumerus -40.9182 -11.5929 -68.4887
rradius 27.8941
rwrist 17.3156
rhand -7.08238 19.2522
rfingers 7.12502
rthumb 18.7916 -9.86007
lclavicle 6.55989e-015 -3.18055e-014
lhumerus -46.5743 4.24213 76.6489
lradius 23.7765
lwrist 13.364
lhand -42.3599 -3.26354
lfingers 7.12502
lthumb -15.2419 26.155
rfemur -16.3742 -14.8409 24.9819
rtibia 31.3879
rfoot -24.0181 3.06094
rtoes 28.1575
lfemur -15.1504 -4.70761 -15.8599
ltibia 29.7511
lfoot -21.6543 1.23442
ltoes -29.7528
